<mxfile host="65bd71144e">
    <diagram id="yHmywk3C2YL9wpTRahxl" name="Page-1">
        <mxGraphModel dx="810" dy="628" grid="1" gridSize="10" guides="1" tooltips="1" connect="1" arrows="1" fold="1" page="1" pageScale="1" pageWidth="850" pageHeight="1100" math="0" shadow="0">
            <root>
                <mxCell id="0"/>
                <mxCell id="1" parent="0"/>
                <mxCell id="2" value="" style="rounded=0;whiteSpace=wrap;html=1;" vertex="1" parent="1">
                    <mxGeometry x="40" y="30" width="760" height="1590" as="geometry"/>
                </mxCell>
                <mxCell id="7" value="" style="rounded=0;whiteSpace=wrap;html=1;" vertex="1" parent="1">
                    <mxGeometry x="50" y="40" width="740" height="140" as="geometry"/>
                </mxCell>
                <mxCell id="8" value="" style="rounded=0;whiteSpace=wrap;html=1;" vertex="1" parent="1">
                    <mxGeometry x="50" y="190" width="740" height="40" as="geometry"/>
                </mxCell>
                <mxCell id="10" value="" style="rounded=0;whiteSpace=wrap;html=1;" vertex="1" parent="1">
                    <mxGeometry x="50" y="240" width="740" height="470" as="geometry"/>
                </mxCell>
                <mxCell id="11" value="" style="rounded=0;whiteSpace=wrap;html=1;" vertex="1" parent="1">
                    <mxGeometry x="60" y="250" width="590" height="450" as="geometry"/>
                </mxCell>
                <mxCell id="12" value="" style="rounded=0;whiteSpace=wrap;html=1;" vertex="1" parent="1">
                    <mxGeometry x="660" y="250" width="120" height="450" as="geometry"/>
                </mxCell>
                <mxCell id="13" value="" style="rounded=0;whiteSpace=wrap;html=1;" vertex="1" parent="1">
                    <mxGeometry x="670" y="260" width="100" height="20" as="geometry"/>
                </mxCell>
                <mxCell id="14" value="" style="rounded=0;whiteSpace=wrap;html=1;" vertex="1" parent="1">
                    <mxGeometry x="670" y="340" width="100" height="60" as="geometry"/>
                </mxCell>
                <mxCell id="15" value="" style="rounded=0;whiteSpace=wrap;html=1;" vertex="1" parent="1">
                    <mxGeometry x="670" y="430" width="100" height="60" as="geometry"/>
                </mxCell>
                <mxCell id="16" value="" style="rounded=0;whiteSpace=wrap;html=1;" vertex="1" parent="1">
                    <mxGeometry x="670" y="520" width="100" height="60" as="geometry"/>
                </mxCell>
                <mxCell id="19" value="" style="rounded=0;whiteSpace=wrap;html=1;" vertex="1" parent="1">
                    <mxGeometry x="282.5" y="360" width="145" height="140" as="geometry"/>
                </mxCell>
                <mxCell id="20" value="" style="rounded=0;whiteSpace=wrap;html=1;" vertex="1" parent="1">
                    <mxGeometry x="100" y="360" width="150" height="140" as="geometry"/>
                </mxCell>
                <mxCell id="21" value="" style="rounded=0;whiteSpace=wrap;html=1;" vertex="1" parent="1">
                    <mxGeometry x="460" y="360" width="150" height="140" as="geometry"/>
                </mxCell>
                <mxCell id="23" value="" style="rounded=0;whiteSpace=wrap;html=1;" vertex="1" parent="1">
                    <mxGeometry x="282.5" y="530" width="145" height="140" as="geometry"/>
                </mxCell>
                <mxCell id="24" value="" style="rounded=0;whiteSpace=wrap;html=1;" vertex="1" parent="1">
                    <mxGeometry x="102.5" y="530" width="145" height="140" as="geometry"/>
                </mxCell>
                <mxCell id="25" value="" style="rounded=0;whiteSpace=wrap;html=1;" vertex="1" parent="1">
                    <mxGeometry x="462.5" y="530" width="145" height="140" as="geometry"/>
                </mxCell>
                <mxCell id="29" value="&lt;h1&gt;Heading&lt;/h1&gt;&lt;p&gt;Lorem ipsum dolor sit amet, consectetur adipisicing elit, sed do eiusmod tempor incididunt ut labore et dolore magna aliqua.&lt;/p&gt;" style="text;html=1;strokeColor=none;fillColor=none;spacing=5;spacingTop=-20;whiteSpace=wrap;overflow=hidden;rounded=0;" vertex="1" parent="1">
                    <mxGeometry x="291.25" y="540" width="127.5" height="100" as="geometry"/>
                </mxCell>
                <mxCell id="31" value="&lt;h1&gt;Heading&lt;/h1&gt;&lt;p&gt;Lorem ipsum dolor sit amet, consectetur adipisicing elit, sed do eiusmod tempor incididunt ut labore et dolore magna aliqua.&lt;/p&gt;" style="text;html=1;strokeColor=none;fillColor=none;spacing=5;spacingTop=-20;whiteSpace=wrap;overflow=hidden;rounded=0;" vertex="1" parent="1">
                    <mxGeometry x="471.25" y="540" width="127.5" height="100" as="geometry"/>
                </mxCell>
                <mxCell id="32" value="&lt;h1&gt;Heading&lt;/h1&gt;&lt;p&gt;Lorem ipsum dolor sit amet, consectetur adipisicing elit, sed do eiusmod tempor incididunt ut labore et dolore magna aliqua.&lt;/p&gt;" style="text;html=1;strokeColor=none;fillColor=none;spacing=5;spacingTop=-20;whiteSpace=wrap;overflow=hidden;rounded=0;" vertex="1" parent="1">
                    <mxGeometry x="111.25" y="540" width="127.5" height="100" as="geometry"/>
                </mxCell>
                <mxCell id="35" value="" style="rounded=0;whiteSpace=wrap;html=1;" vertex="1" parent="1">
                    <mxGeometry x="50" y="730" width="740" height="320" as="geometry"/>
                </mxCell>
                <mxCell id="36" value="" style="endArrow=classic;html=1;" edge="1" parent="1">
                    <mxGeometry relative="1" as="geometry">
                        <mxPoint x="102.5" y="310" as="sourcePoint"/>
                        <mxPoint x="262.5" y="310" as="targetPoint"/>
                    </mxGeometry>
                </mxCell>
                <mxCell id="37" value="Label" style="edgeLabel;resizable=0;html=1;align=center;verticalAlign=middle;" connectable="0" vertex="1" parent="36">
                    <mxGeometry relative="1" as="geometry"/>
                </mxCell>
                <mxCell id="38" value="Source" style="edgeLabel;resizable=0;html=1;align=left;verticalAlign=bottom;" connectable="0" vertex="1" parent="36">
                    <mxGeometry x="-1" relative="1" as="geometry"/>
                </mxCell>
                <mxCell id="39" value="&lt;h1 style=&quot;text-align: justify; line-height: 250%;&quot;&gt;Heading&lt;/h1&gt;&lt;p style=&quot;text-align: justify; line-height: 250%;&quot;&gt;Lorem ipsum dolor sit amet, consectetur adipisicing elit, sed do eiusmod tempor incididunt ut labore et dolore magna aliqua.&lt;/p&gt;" style="text;html=1;strokeColor=none;fillColor=none;spacing=5;spacingTop=-20;whiteSpace=wrap;overflow=hidden;rounded=0;align=center;" vertex="1" parent="1">
                    <mxGeometry x="80" y="790" width="307.5" height="200" as="geometry"/>
                </mxCell>
                <mxCell id="40" value="" style="rounded=0;whiteSpace=wrap;html=1;" vertex="1" parent="1">
                    <mxGeometry x="50" y="1060" width="740" height="220" as="geometry"/>
                </mxCell>
                <mxCell id="41" value="" style="ellipse;whiteSpace=wrap;html=1;" vertex="1" parent="1">
                    <mxGeometry x="100" y="1090" width="170" height="170" as="geometry"/>
                </mxCell>
                <mxCell id="42" value="" style="ellipse;whiteSpace=wrap;html=1;" vertex="1" parent="1">
                    <mxGeometry x="340" y="1085" width="170" height="170" as="geometry"/>
                </mxCell>
                <mxCell id="43" value="" style="ellipse;whiteSpace=wrap;html=1;" vertex="1" parent="1">
                    <mxGeometry x="570" y="1085" width="170" height="170" as="geometry"/>
                </mxCell>
                <mxCell id="45" value="" style="rounded=0;whiteSpace=wrap;html=1;" vertex="1" parent="1">
                    <mxGeometry x="50" y="1290" width="740" height="250" as="geometry"/>
                </mxCell>
                <mxCell id="47" value="" style="rounded=0;whiteSpace=wrap;html=1;" vertex="1" parent="1">
                    <mxGeometry x="50" y="1550" width="740" height="60" as="geometry"/>
                </mxCell>
            </root>
        </mxGraphModel>
    </diagram>
</mxfile>